{
	"asset":{
		"generator":"Khronos glTF Blender I/O v3.5.30",
		"version":"2.0"
	},
	"scene":0,
	"scenes":[
		{
			"name":"Scene",
			"nodes":[
				0
			]
		}
	],
	"nodes":[
		{
			"mesh":0,
			"name":"WallCollider-colonly",
			"scale":[
				0.7684900760650635,
				1,
				0.7684900760650635
			],
			"translation":[
				-6,
				0.5,
				-2
			]
		}
	],
	"meshes":[
		{
			"name":"Cube.019",
			"primitives":[
				{
					"attributes":{
						"POSITION":0,
						"TEXCOORD_0":1,
						"NORMAL":2
					},
					"indices":3
				}
			]
		}
	],
	"accessors":[
		{
			"bufferView":0,
			"componentType":5126,
			"count":48,
			"max":[
				0.5,
				2.5,
				0.5
			],
			"min":[
				-0.5,
				-0.5,
				-5.20501184463501
			],
			"type":"VEC3"
		},
		{
			"bufferView":1,
			"componentType":5126,
			"count":48,
			"type":"VEC2"
		},
		{
			"bufferView":2,
			"componentType":5126,
			"count":48,
			"type":"VEC3"
		},
		{
			"bufferView":3,
			"componentType":5123,
			"count":72,
			"type":"SCALAR"
		}
	],
	"bufferViews":[
		{
			"buffer":0,
			"byteLength":576,
			"byteOffset":0,
			"target":34962
		},
		{
			"buffer":0,
			"byteLength":384,
			"byteOffset":576,
			"target":34962
		},
		{
			"buffer":0,
			"byteLength":576,
			"byteOffset":960,
			"target":34962
		},
		{
			"buffer":0,
			"byteLength":144,
			"byteOffset":1536,
			"target":34963
		}
	],
	"buffers":[
		{
			"byteLength":1680,
			"uri":"collider-pillar.bin"
		}
	]
}
